<mxfile host="65bd71144e">
    <diagram id="86jPcfIjYjlKc2B4Hxd_" name="Page-1">
        <mxGraphModel dx="853" dy="846" grid="1" gridSize="10" guides="1" tooltips="1" connect="1" arrows="1" fold="1" page="1" pageScale="1" pageWidth="827" pageHeight="1169" math="0" shadow="0">
            <root>
                <mxCell id="0"/>
                <mxCell id="1" parent="0"/>
                <mxCell id="3" value="" style="sketch=0;outlineConnect=0;fontColor=#232F3E;gradientColor=none;fillColor=#3F8624;strokeColor=none;dashed=0;verticalLabelPosition=bottom;verticalAlign=top;align=center;html=1;fontSize=12;fontStyle=0;aspect=fixed;pointerEvents=1;shape=mxgraph.aws4.house;" vertex="1" parent="1">
                    <mxGeometry x="150" y="270" width="78" height="78" as="geometry"/>
                </mxCell>
                <mxCell id="4" value="" style="image;html=1;image=img/lib/clip_art/people/Doctor_Woman_128x128.png" vertex="1" parent="1">
                    <mxGeometry x="540" y="180" width="80" height="80" as="geometry"/>
                </mxCell>
                <mxCell id="5" value="" style="shape=mxgraph.signs.healthcare.out_patient;html=1;pointerEvents=1;fillColor=#000000;strokeColor=none;verticalLabelPosition=bottom;verticalAlign=top;align=center;" vertex="1" parent="1">
                    <mxGeometry x="430" y="570" width="56" height="99" as="geometry"/>
                </mxCell>
                <mxCell id="6" value="unit_id" style="ellipse;shape=cloud;whiteSpace=wrap;html=1;" vertex="1" parent="1">
                    <mxGeometry x="10" y="210" width="120" height="80" as="geometry"/>
                </mxCell>
                <mxCell id="7" value="unit_name" style="ellipse;shape=cloud;whiteSpace=wrap;html=1;" vertex="1" parent="1">
                    <mxGeometry x="90" y="140" width="120" height="80" as="geometry"/>
                </mxCell>
                <mxCell id="8" value="floor" style="ellipse;shape=cloud;whiteSpace=wrap;html=1;" vertex="1" parent="1">
                    <mxGeometry x="220" y="160" width="120" height="80" as="geometry"/>
                </mxCell>
                <mxCell id="9" value="" style="ellipse;shape=cloud;whiteSpace=wrap;html=1;" vertex="1" parent="1">
                    <mxGeometry x="260" y="260" width="120" height="80" as="geometry"/>
                </mxCell>
                <mxCell id="10" value="doctor_id" style="ellipse;shape=cloud;whiteSpace=wrap;html=1;" vertex="1" parent="1">
                    <mxGeometry x="460" y="60" width="120" height="80" as="geometry"/>
                </mxCell>
                <mxCell id="11" value="doc_fName" style="ellipse;shape=cloud;whiteSpace=wrap;html=1;" vertex="1" parent="1">
                    <mxGeometry x="590" y="90" width="120" height="80" as="geometry"/>
                </mxCell>
                <mxCell id="12" value="doc_lName" style="ellipse;shape=cloud;whiteSpace=wrap;html=1;" vertex="1" parent="1">
                    <mxGeometry x="660" y="180" width="120" height="80" as="geometry"/>
                </mxCell>
                <mxCell id="13" value="speciality" style="ellipse;shape=cloud;whiteSpace=wrap;html=1;" vertex="1" parent="1">
                    <mxGeometry x="590" y="280" width="120" height="80" as="geometry"/>
                </mxCell>
                <mxCell id="14" value="patient_id" style="ellipse;shape=cloud;whiteSpace=wrap;html=1;" vertex="1" parent="1">
                    <mxGeometry x="270" y="530" width="120" height="80" as="geometry"/>
                </mxCell>
                <mxCell id="15" value="condition" style="ellipse;shape=cloud;whiteSpace=wrap;html=1;" vertex="1" parent="1">
                    <mxGeometry x="366" y="450" width="120" height="80" as="geometry"/>
                </mxCell>
                <mxCell id="16" value="treatment" style="ellipse;shape=cloud;whiteSpace=wrap;html=1;" vertex="1" parent="1">
                    <mxGeometry x="510" y="480" width="120" height="80" as="geometry"/>
                </mxCell>
                <mxCell id="17" value="social_sec_num" style="ellipse;shape=cloud;whiteSpace=wrap;html=1;" vertex="1" parent="1">
                    <mxGeometry x="550" y="589" width="120" height="80" as="geometry"/>
                </mxCell>
                <mxCell id="18" value="age" style="ellipse;shape=cloud;whiteSpace=wrap;html=1;" vertex="1" parent="1">
                    <mxGeometry x="486" y="680" width="120" height="80" as="geometry"/>
                </mxCell>
                <mxCell id="19" value="admission_date" style="ellipse;shape=cloud;whiteSpace=wrap;html=1;" vertex="1" parent="1">
                    <mxGeometry x="294" y="660" width="120" height="80" as="geometry"/>
                </mxCell>
            </root>
        </mxGraphModel>
    </diagram>
    <diagram id="Bjw-4gIh3WpNVCt62BPU" name="Page-2">
        <mxGraphModel dx="1680" dy="846" grid="1" gridSize="10" guides="1" tooltips="1" connect="1" arrows="1" fold="1" page="1" pageScale="1" pageWidth="827" pageHeight="1169" math="0" shadow="0">
            <root>
                <mxCell id="inlU1ffKoanEq_E3qhV8-0"/>
                <mxCell id="inlU1ffKoanEq_E3qhV8-1" parent="inlU1ffKoanEq_E3qhV8-0"/>
                <mxCell id="inlU1ffKoanEq_E3qhV8-2" value="unit" style="html=1;dashed=0;whitespace=wrap;" vertex="1" parent="inlU1ffKoanEq_E3qhV8-1">
                    <mxGeometry x="90" y="410" width="100" height="50" as="geometry"/>
                </mxCell>
                <mxCell id="inlU1ffKoanEq_E3qhV8-3" value="doctor" style="html=1;dashed=0;whitespace=wrap;" vertex="1" parent="inlU1ffKoanEq_E3qhV8-1">
                    <mxGeometry x="364" y="680" width="100" height="50" as="geometry"/>
                </mxCell>
                <mxCell id="inlU1ffKoanEq_E3qhV8-4" value="intervention" style="html=1;dashed=0;whitespace=wrap;" vertex="1" parent="inlU1ffKoanEq_E3qhV8-1">
                    <mxGeometry x="570" y="390" width="100" height="50" as="geometry"/>
                </mxCell>
                <mxCell id="inlU1ffKoanEq_E3qhV8-5" value="patient" style="html=1;dashed=0;whitespace=wrap;" vertex="1" parent="inlU1ffKoanEq_E3qhV8-1">
                    <mxGeometry x="350" y="90" width="100" height="50" as="geometry"/>
                </mxCell>
                <mxCell id="inlU1ffKoanEq_E3qhV8-6" value="patient_id" style="shape=ellipse;html=1;dashed=0;whitespace=wrap;perimeter=ellipsePerimeter;" vertex="1" parent="inlU1ffKoanEq_E3qhV8-1">
                    <mxGeometry x="180" y="30" width="100" height="50" as="geometry"/>
                </mxCell>
                <mxCell id="GwncLQ3oEvmN_W0v1M9I-0" value="admission_date" style="shape=ellipse;html=1;dashed=0;whitespace=wrap;perimeter=ellipsePerimeter;" vertex="1" parent="inlU1ffKoanEq_E3qhV8-1">
                    <mxGeometry x="300" y="10" width="100" height="50" as="geometry"/>
                </mxCell>
                <mxCell id="uHaglFWV8OLqVwFPmF2D-0" value="condition" style="shape=ellipse;html=1;dashed=0;whitespace=wrap;perimeter=ellipsePerimeter;" vertex="1" parent="inlU1ffKoanEq_E3qhV8-1">
                    <mxGeometry x="430" y="10" width="100" height="50" as="geometry"/>
                </mxCell>
                <mxCell id="rhovUafIOaiaKO6EjRVP-0" value="soc_sec_num" style="shape=ellipse;html=1;dashed=0;whitespace=wrap;perimeter=ellipsePerimeter;" vertex="1" parent="inlU1ffKoanEq_E3qhV8-1">
                    <mxGeometry x="540" y="120" width="100" height="50" as="geometry"/>
                </mxCell>
                <mxCell id="rhovUafIOaiaKO6EjRVP-1" value="age" style="shape=ellipse;html=1;dashed=0;whitespace=wrap;perimeter=ellipsePerimeter;" vertex="1" parent="inlU1ffKoanEq_E3qhV8-1">
                    <mxGeometry x="520" y="50" width="100" height="50" as="geometry"/>
                </mxCell>
                <mxCell id="FnXH8v7WkVwVZ-WeLWG6-0" value="pat_fName" style="shape=ellipse;html=1;dashed=0;whitespace=wrap;perimeter=ellipsePerimeter;" vertex="1" parent="inlU1ffKoanEq_E3qhV8-1">
                    <mxGeometry x="490" y="190" width="100" height="50" as="geometry"/>
                </mxCell>
                <mxCell id="FnXH8v7WkVwVZ-WeLWG6-1" value="pat_lName" style="shape=ellipse;html=1;dashed=0;whitespace=wrap;perimeter=ellipsePerimeter;" vertex="1" parent="inlU1ffKoanEq_E3qhV8-1">
                    <mxGeometry x="250" y="190" width="100" height="50" as="geometry"/>
                </mxCell>
                <mxCell id="FnXH8v7WkVwVZ-WeLWG6-2" value="unit_id" style="shape=ellipse;html=1;dashed=0;whitespace=wrap;perimeter=ellipsePerimeter;" vertex="1" parent="inlU1ffKoanEq_E3qhV8-1">
                    <mxGeometry x="-70" y="330" width="100" height="50" as="geometry"/>
                </mxCell>
                <mxCell id="FnXH8v7WkVwVZ-WeLWG6-3" value="unit_name" style="shape=ellipse;html=1;dashed=0;whitespace=wrap;perimeter=ellipsePerimeter;" vertex="1" parent="inlU1ffKoanEq_E3qhV8-1">
                    <mxGeometry x="50" y="310" width="100" height="50" as="geometry"/>
                </mxCell>
                <mxCell id="FnXH8v7WkVwVZ-WeLWG6-4" value="floor" style="shape=ellipse;html=1;dashed=0;whitespace=wrap;perimeter=ellipsePerimeter;" vertex="1" parent="inlU1ffKoanEq_E3qhV8-1">
                    <mxGeometry x="180" y="310" width="100" height="50" as="geometry"/>
                </mxCell>
                <mxCell id="FnXH8v7WkVwVZ-WeLWG6-6" value="fk_doc_id" style="shape=ellipse;html=1;dashed=0;whitespace=wrap;perimeter=ellipsePerimeter;" vertex="1" parent="inlU1ffKoanEq_E3qhV8-1">
                    <mxGeometry x="270" y="350" width="100" height="50" as="geometry"/>
                </mxCell>
                <mxCell id="pDr4bxw7mI9oDqsVNhxm-0" value="doc_id" style="shape=ellipse;html=1;dashed=0;whitespace=wrap;perimeter=ellipsePerimeter;" vertex="1" parent="inlU1ffKoanEq_E3qhV8-1">
                    <mxGeometry x="180" y="620" width="100" height="50" as="geometry"/>
                </mxCell>
                <mxCell id="pDr4bxw7mI9oDqsVNhxm-1" value="doc_fName" style="shape=ellipse;html=1;dashed=0;whitespace=wrap;perimeter=ellipsePerimeter;" vertex="1" parent="inlU1ffKoanEq_E3qhV8-1">
                    <mxGeometry x="300" y="600" width="100" height="50" as="geometry"/>
                </mxCell>
                <mxCell id="pDr4bxw7mI9oDqsVNhxm-2" value="doc_lName" style="shape=ellipse;html=1;dashed=0;whitespace=wrap;perimeter=ellipsePerimeter;" vertex="1" parent="inlU1ffKoanEq_E3qhV8-1">
                    <mxGeometry x="430" y="600" width="100" height="50" as="geometry"/>
                </mxCell>
                <mxCell id="pDr4bxw7mI9oDqsVNhxm-3" value="&lt;span&gt;speciality&lt;/span&gt;" style="shape=ellipse;html=1;dashed=0;whitespace=wrap;perimeter=ellipsePerimeter;" vertex="1" parent="inlU1ffKoanEq_E3qhV8-1">
                    <mxGeometry x="520" y="640" width="100" height="50" as="geometry"/>
                </mxCell>
                <mxCell id="__pa63il2NYpVxRyr8uX-4" value="int_it" style="shape=ellipse;html=1;dashed=0;whitespace=wrap;perimeter=ellipsePerimeter;" vertex="1" parent="inlU1ffKoanEq_E3qhV8-1">
                    <mxGeometry x="390" y="320" width="100" height="50" as="geometry"/>
                </mxCell>
                <mxCell id="__pa63il2NYpVxRyr8uX-5" value="symptoms" style="shape=ellipse;html=1;dashed=0;whitespace=wrap;perimeter=ellipsePerimeter;" vertex="1" parent="inlU1ffKoanEq_E3qhV8-1">
                    <mxGeometry x="510" y="300" width="100" height="50" as="geometry"/>
                </mxCell>
                <mxCell id="__pa63il2NYpVxRyr8uX-6" value="treatment" style="shape=ellipse;html=1;dashed=0;whitespace=wrap;perimeter=ellipsePerimeter;" vertex="1" parent="inlU1ffKoanEq_E3qhV8-1">
                    <mxGeometry x="640" y="300" width="100" height="50" as="geometry"/>
                </mxCell>
                <mxCell id="__pa63il2NYpVxRyr8uX-7" value="date" style="shape=ellipse;html=1;dashed=0;whitespace=wrap;perimeter=ellipsePerimeter;" vertex="1" parent="inlU1ffKoanEq_E3qhV8-1">
                    <mxGeometry x="730" y="340" width="100" height="50" as="geometry"/>
                </mxCell>
                <mxCell id="D8gGL4-EPLNkNSlSemj_-0" value="fk_floor_id" style="shape=ellipse;html=1;dashed=0;whitespace=wrap;perimeter=ellipsePerimeter;" vertex="1" parent="inlU1ffKoanEq_E3qhV8-1">
                    <mxGeometry x="170" y="120" width="100" height="50" as="geometry"/>
                </mxCell>
            </root>
        </mxGraphModel>
    </diagram>
    <diagram id="Qm6BNDxRwwPRGpBKVGzO" name="Page-3">
        <mxGraphModel dx="853" dy="846" grid="1" gridSize="10" guides="1" tooltips="1" connect="1" arrows="1" fold="1" page="1" pageScale="1" pageWidth="827" pageHeight="1169" math="0" shadow="0">
            <root>
                <mxCell id="7gOeYddS41u8AO1_2FBx-0"/>
                <mxCell id="7gOeYddS41u8AO1_2FBx-1" parent="7gOeYddS41u8AO1_2FBx-0"/>
                <mxCell id="7gOeYddS41u8AO1_2FBx-2" value="intervention" style="swimlane;fontStyle=0;childLayout=stackLayout;horizontal=1;startSize=26;fillColor=none;horizontalStack=0;resizeParent=1;resizeParentMax=0;resizeLast=0;collapsible=1;marginBottom=0;" vertex="1" parent="7gOeYddS41u8AO1_2FBx-1">
                    <mxGeometry x="560" y="520" width="140" height="130" as="geometry"/>
                </mxCell>
                <mxCell id="7gOeYddS41u8AO1_2FBx-3" value="+ intervention_id: int" style="text;strokeColor=none;fillColor=none;align=left;verticalAlign=top;spacingLeft=4;spacingRight=4;overflow=hidden;rotatable=0;points=[[0,0.5],[1,0.5]];portConstraint=eastwest;" vertex="1" parent="7gOeYddS41u8AO1_2FBx-2">
                    <mxGeometry y="26" width="140" height="26" as="geometry"/>
                </mxCell>
                <mxCell id="7gOeYddS41u8AO1_2FBx-4" value="+ symptoms: string" style="text;strokeColor=none;fillColor=none;align=left;verticalAlign=top;spacingLeft=4;spacingRight=4;overflow=hidden;rotatable=0;points=[[0,0.5],[1,0.5]];portConstraint=eastwest;" vertex="1" parent="7gOeYddS41u8AO1_2FBx-2">
                    <mxGeometry y="52" width="140" height="26" as="geometry"/>
                </mxCell>
                <mxCell id="7gOeYddS41u8AO1_2FBx-5" value="+ treatment: string" style="text;strokeColor=none;fillColor=none;align=left;verticalAlign=top;spacingLeft=4;spacingRight=4;overflow=hidden;rotatable=0;points=[[0,0.5],[1,0.5]];portConstraint=eastwest;" vertex="1" parent="7gOeYddS41u8AO1_2FBx-2">
                    <mxGeometry y="78" width="140" height="26" as="geometry"/>
                </mxCell>
                <mxCell id="3aPaOEOCPdUsQ5IWx-CF-0" value="+ date: int" style="text;strokeColor=none;fillColor=none;align=left;verticalAlign=top;spacingLeft=4;spacingRight=4;overflow=hidden;rotatable=0;points=[[0,0.5],[1,0.5]];portConstraint=eastwest;" vertex="1" parent="7gOeYddS41u8AO1_2FBx-2">
                    <mxGeometry y="104" width="140" height="26" as="geometry"/>
                </mxCell>
                <mxCell id="7gOeYddS41u8AO1_2FBx-6" value="patient" style="swimlane;fontStyle=0;childLayout=stackLayout;horizontal=1;startSize=26;fillColor=none;horizontalStack=0;resizeParent=1;resizeParentMax=0;resizeLast=0;collapsible=1;marginBottom=0;" vertex="1" parent="7gOeYddS41u8AO1_2FBx-1">
                    <mxGeometry x="120" y="200" width="140" height="286" as="geometry"/>
                </mxCell>
                <mxCell id="7gOeYddS41u8AO1_2FBx-7" value="+ pat_id: int" style="text;strokeColor=none;fillColor=none;align=left;verticalAlign=top;spacingLeft=4;spacingRight=4;overflow=hidden;rotatable=0;points=[[0,0.5],[1,0.5]];portConstraint=eastwest;" vertex="1" parent="7gOeYddS41u8AO1_2FBx-6">
                    <mxGeometry y="26" width="140" height="26" as="geometry"/>
                </mxCell>
                <mxCell id="7gOeYddS41u8AO1_2FBx-8" value="+ pat_fName: string" style="text;strokeColor=none;fillColor=none;align=left;verticalAlign=top;spacingLeft=4;spacingRight=4;overflow=hidden;rotatable=0;points=[[0,0.5],[1,0.5]];portConstraint=eastwest;" vertex="1" parent="7gOeYddS41u8AO1_2FBx-6">
                    <mxGeometry y="52" width="140" height="26" as="geometry"/>
                </mxCell>
                <mxCell id="7gOeYddS41u8AO1_2FBx-9" value="+ pat_lName: type" style="text;strokeColor=none;fillColor=none;align=left;verticalAlign=top;spacingLeft=4;spacingRight=4;overflow=hidden;rotatable=0;points=[[0,0.5],[1,0.5]];portConstraint=eastwest;" vertex="1" parent="7gOeYddS41u8AO1_2FBx-6">
                    <mxGeometry y="78" width="140" height="26" as="geometry"/>
                </mxCell>
                <mxCell id="9_h3ASjCL2MY-Cq5poMV-0" value="+ admission_date: string" style="text;strokeColor=none;fillColor=none;align=left;verticalAlign=top;spacingLeft=4;spacingRight=4;overflow=hidden;rotatable=0;points=[[0,0.5],[1,0.5]];portConstraint=eastwest;" vertex="1" parent="7gOeYddS41u8AO1_2FBx-6">
                    <mxGeometry y="104" width="140" height="26" as="geometry"/>
                </mxCell>
                <mxCell id="9_h3ASjCL2MY-Cq5poMV-1" value="+ condition: string" style="text;strokeColor=none;fillColor=none;align=left;verticalAlign=top;spacingLeft=4;spacingRight=4;overflow=hidden;rotatable=0;points=[[0,0.5],[1,0.5]];portConstraint=eastwest;" vertex="1" parent="7gOeYddS41u8AO1_2FBx-6">
                    <mxGeometry y="130" width="140" height="26" as="geometry"/>
                </mxCell>
                <mxCell id="9_h3ASjCL2MY-Cq5poMV-2" value="+ age: int" style="text;strokeColor=none;fillColor=none;align=left;verticalAlign=top;spacingLeft=4;spacingRight=4;overflow=hidden;rotatable=0;points=[[0,0.5],[1,0.5]];portConstraint=eastwest;" vertex="1" parent="7gOeYddS41u8AO1_2FBx-6">
                    <mxGeometry y="156" width="140" height="26" as="geometry"/>
                </mxCell>
                <mxCell id="hQJ2VvsBly6GzqA8UKbJ-0" value="+ soc_sec_num: int" style="text;strokeColor=none;fillColor=none;align=left;verticalAlign=top;spacingLeft=4;spacingRight=4;overflow=hidden;rotatable=0;points=[[0,0.5],[1,0.5]];portConstraint=eastwest;" vertex="1" parent="7gOeYddS41u8AO1_2FBx-6">
                    <mxGeometry y="182" width="140" height="26" as="geometry"/>
                </mxCell>
                <mxCell id="hQJ2VvsBly6GzqA8UKbJ-1" value="+ fk_intervention_id: int" style="text;strokeColor=none;fillColor=none;align=left;verticalAlign=top;spacingLeft=4;spacingRight=4;overflow=hidden;rotatable=0;points=[[0,0.5],[1,0.5]];portConstraint=eastwest;" vertex="1" parent="7gOeYddS41u8AO1_2FBx-6">
                    <mxGeometry y="208" width="140" height="26" as="geometry"/>
                </mxCell>
                <mxCell id="hQJ2VvsBly6GzqA8UKbJ-2" value="+ fk_doc_id: int" style="text;strokeColor=none;fillColor=none;align=left;verticalAlign=top;spacingLeft=4;spacingRight=4;overflow=hidden;rotatable=0;points=[[0,0.5],[1,0.5]];portConstraint=eastwest;" vertex="1" parent="7gOeYddS41u8AO1_2FBx-6">
                    <mxGeometry y="234" width="140" height="26" as="geometry"/>
                </mxCell>
                <mxCell id="9_h3ASjCL2MY-Cq5poMV-3" value="+ fk_unit_id: int" style="text;strokeColor=none;fillColor=none;align=left;verticalAlign=top;spacingLeft=4;spacingRight=4;overflow=hidden;rotatable=0;points=[[0,0.5],[1,0.5]];portConstraint=eastwest;" vertex="1" parent="7gOeYddS41u8AO1_2FBx-6">
                    <mxGeometry y="260" width="140" height="26" as="geometry"/>
                </mxCell>
                <mxCell id="7gOeYddS41u8AO1_2FBx-10" value="doctor" style="swimlane;fontStyle=0;childLayout=stackLayout;horizontal=1;startSize=26;fillColor=none;horizontalStack=0;resizeParent=1;resizeParentMax=0;resizeLast=0;collapsible=1;marginBottom=0;" vertex="1" parent="7gOeYddS41u8AO1_2FBx-1">
                    <mxGeometry x="560" y="200" width="140" height="156" as="geometry"/>
                </mxCell>
                <mxCell id="7gOeYddS41u8AO1_2FBx-11" value="+ doc_id: int" style="text;strokeColor=none;fillColor=none;align=left;verticalAlign=top;spacingLeft=4;spacingRight=4;overflow=hidden;rotatable=0;points=[[0,0.5],[1,0.5]];portConstraint=eastwest;" vertex="1" parent="7gOeYddS41u8AO1_2FBx-10">
                    <mxGeometry y="26" width="140" height="26" as="geometry"/>
                </mxCell>
                <mxCell id="7gOeYddS41u8AO1_2FBx-12" value="+ doc_fName: string" style="text;strokeColor=none;fillColor=none;align=left;verticalAlign=top;spacingLeft=4;spacingRight=4;overflow=hidden;rotatable=0;points=[[0,0.5],[1,0.5]];portConstraint=eastwest;" vertex="1" parent="7gOeYddS41u8AO1_2FBx-10">
                    <mxGeometry y="52" width="140" height="26" as="geometry"/>
                </mxCell>
                <mxCell id="BSgdNT1JWojCBzNVtNsO-6" value="+ doc_lName: string" style="text;strokeColor=none;fillColor=none;align=left;verticalAlign=top;spacingLeft=4;spacingRight=4;overflow=hidden;rotatable=0;points=[[0,0.5],[1,0.5]];portConstraint=eastwest;" vertex="1" parent="7gOeYddS41u8AO1_2FBx-10">
                    <mxGeometry y="78" width="140" height="26" as="geometry"/>
                </mxCell>
                <mxCell id="7gOeYddS41u8AO1_2FBx-13" value="+ speciality : string" style="text;strokeColor=none;fillColor=none;align=left;verticalAlign=top;spacingLeft=4;spacingRight=4;overflow=hidden;rotatable=0;points=[[0,0.5],[1,0.5]];portConstraint=eastwest;" vertex="1" parent="7gOeYddS41u8AO1_2FBx-10">
                    <mxGeometry y="104" width="140" height="26" as="geometry"/>
                </mxCell>
                <mxCell id="ji9pNSmQuovWMkqt7jWn-2" value="+ fk_unit_id : int" style="text;strokeColor=none;fillColor=none;align=left;verticalAlign=top;spacingLeft=4;spacingRight=4;overflow=hidden;rotatable=0;points=[[0,0.5],[1,0.5]];portConstraint=eastwest;" vertex="1" parent="7gOeYddS41u8AO1_2FBx-10">
                    <mxGeometry y="130" width="140" height="26" as="geometry"/>
                </mxCell>
                <mxCell id="7gOeYddS41u8AO1_2FBx-14" value="unit" style="swimlane;fontStyle=0;childLayout=stackLayout;horizontal=1;startSize=26;fillColor=none;horizontalStack=0;resizeParent=1;resizeParentMax=0;resizeLast=0;collapsible=1;marginBottom=0;" vertex="1" parent="7gOeYddS41u8AO1_2FBx-1">
                    <mxGeometry x="120" y="520" width="140" height="156" as="geometry"/>
                </mxCell>
                <mxCell id="7gOeYddS41u8AO1_2FBx-15" value="+ unit_id: int" style="text;strokeColor=none;fillColor=none;align=left;verticalAlign=top;spacingLeft=4;spacingRight=4;overflow=hidden;rotatable=0;points=[[0,0.5],[1,0.5]];portConstraint=eastwest;" vertex="1" parent="7gOeYddS41u8AO1_2FBx-14">
                    <mxGeometry y="26" width="140" height="26" as="geometry"/>
                </mxCell>
                <mxCell id="7gOeYddS41u8AO1_2FBx-16" value="+ unit_name: string" style="text;strokeColor=none;fillColor=none;align=left;verticalAlign=top;spacingLeft=4;spacingRight=4;overflow=hidden;rotatable=0;points=[[0,0.5],[1,0.5]];portConstraint=eastwest;" vertex="1" parent="7gOeYddS41u8AO1_2FBx-14">
                    <mxGeometry y="52" width="140" height="26" as="geometry"/>
                </mxCell>
                <mxCell id="ji9pNSmQuovWMkqt7jWn-0" value="+ floor: int" style="text;strokeColor=none;fillColor=none;align=left;verticalAlign=top;spacingLeft=4;spacingRight=4;overflow=hidden;rotatable=0;points=[[0,0.5],[1,0.5]];portConstraint=eastwest;" vertex="1" parent="7gOeYddS41u8AO1_2FBx-14">
                    <mxGeometry y="78" width="140" height="26" as="geometry"/>
                </mxCell>
                <mxCell id="7gOeYddS41u8AO1_2FBx-17" value="+ fk_doc_id: int" style="text;strokeColor=none;fillColor=none;align=left;verticalAlign=top;spacingLeft=4;spacingRight=4;overflow=hidden;rotatable=0;points=[[0,0.5],[1,0.5]];portConstraint=eastwest;" vertex="1" parent="7gOeYddS41u8AO1_2FBx-14">
                    <mxGeometry y="104" width="140" height="26" as="geometry"/>
                </mxCell>
                <mxCell id="ji9pNSmQuovWMkqt7jWn-1" value="+ fk_pat_id: int" style="text;strokeColor=none;fillColor=none;align=left;verticalAlign=top;spacingLeft=4;spacingRight=4;overflow=hidden;rotatable=0;points=[[0,0.5],[1,0.5]];portConstraint=eastwest;" vertex="1" parent="7gOeYddS41u8AO1_2FBx-14">
                    <mxGeometry y="130" width="140" height="26" as="geometry"/>
                </mxCell>
            </root>
        </mxGraphModel>
    </diagram>
</mxfile>